<svg xmlns="http://www.w3.org/2000/svg" width="900" height="560" viewBox="0 0 900 560">
<rect width="100%" height="100%" fill="white"/>
<text x="450.0" y="32" text-anchor="middle" font-family="sans-serif" font-size="20">Cost vs False-Promotion Trade-off</text>
<line x1="100" y1="460" x2="860" y2="460" stroke="black"/>
<line x1="100" y1="460" x2="100" y2="65" stroke="black"/>
<line x1="95" y1="460.00" x2="100" y2="460.00" stroke="black"/>
<text x="90" y="464.00" text-anchor="end" font-family="sans-serif" font-size="12">0</text>
<line x1="95" y1="381.00" x2="100" y2="381.00" stroke="black"/>
<text x="90" y="385.00" text-anchor="end" font-family="sans-serif" font-size="12">0.2</text>
<line x1="95" y1="302.00" x2="100" y2="302.00" stroke="black"/>
<text x="90" y="306.00" text-anchor="end" font-family="sans-serif" font-size="12">0.4</text>
<line x1="95" y1="223.00" x2="100" y2="223.00" stroke="black"/>
<text x="90" y="227.00" text-anchor="end" font-family="sans-serif" font-size="12">0.6</text>
<line x1="95" y1="144.00" x2="100" y2="144.00" stroke="black"/>
<text x="90" y="148.00" text-anchor="end" font-family="sans-serif" font-size="12">0.8</text>
<line x1="95" y1="65.00" x2="100" y2="65.00" stroke="black"/>
<text x="90" y="69.00" text-anchor="end" font-family="sans-serif" font-size="12">1</text>
<text x="22" y="262.5" transform="rotate(-90 22 262.5)" text-anchor="middle" font-family="sans-serif" font-size="14">Normalized cost / False promotion</text>
<rect x="104.75" y="104.50" width="19.00" height="355.50" fill="#2196F3"/>
<rect x="123.75" y="460.00" width="19.00" height="1.00" fill="#FF9800"/>
<rect x="152.25" y="456.05" width="19.00" height="3.95" fill="#2196F3"/>
<rect x="171.25" y="460.00" width="19.00" height="1.00" fill="#FF9800"/>
<rect x="199.75" y="365.20" width="19.00" height="94.80" fill="#2196F3"/>
<rect x="218.75" y="419.49" width="19.00" height="40.51" fill="#FF9800"/>
<rect x="247.25" y="262.50" width="19.00" height="197.50" fill="#2196F3"/>
<rect x="266.25" y="460.00" width="19.00" height="1.00" fill="#FF9800"/>
<rect x="294.75" y="183.50" width="19.00" height="276.50" fill="#2196F3"/>
<rect x="313.75" y="460.00" width="19.00" height="1.00" fill="#FF9800"/>
<rect x="342.25" y="144.00" width="19.00" height="316.00" fill="#2196F3"/>
<rect x="361.25" y="460.00" width="19.00" height="1.00" fill="#FF9800"/>
<rect x="389.75" y="223.00" width="19.00" height="237.00" fill="#2196F3"/>
<rect x="408.75" y="460.00" width="19.00" height="1.00" fill="#FF9800"/>
<rect x="437.25" y="65.00" width="19.00" height="395.00" fill="#2196F3"/>
<rect x="456.25" y="460.00" width="19.00" height="1.00" fill="#FF9800"/>
<rect x="484.75" y="104.50" width="19.00" height="355.50" fill="#2196F3"/>
<rect x="503.75" y="460.00" width="19.00" height="1.00" fill="#FF9800"/>
<rect x="532.25" y="104.50" width="19.00" height="355.50" fill="#2196F3"/>
<rect x="551.25" y="460.00" width="19.00" height="1.00" fill="#FF9800"/>
<rect x="579.75" y="104.50" width="19.00" height="355.50" fill="#2196F3"/>
<rect x="598.75" y="460.00" width="19.00" height="1.00" fill="#FF9800"/>
<rect x="627.25" y="104.50" width="19.00" height="355.50" fill="#2196F3"/>
<rect x="646.25" y="460.00" width="19.00" height="1.00" fill="#FF9800"/>
<rect x="674.75" y="104.50" width="19.00" height="355.50" fill="#2196F3"/>
<rect x="693.75" y="460.00" width="19.00" height="1.00" fill="#FF9800"/>
<rect x="722.25" y="104.50" width="19.00" height="355.50" fill="#2196F3"/>
<rect x="741.25" y="460.00" width="19.00" height="1.00" fill="#FF9800"/>
<rect x="769.75" y="104.50" width="19.00" height="355.50" fill="#2196F3"/>
<rect x="788.75" y="419.49" width="19.00" height="40.51" fill="#FF9800"/>
<rect x="817.25" y="104.50" width="19.00" height="355.50" fill="#2196F3"/>
<rect x="836.25" y="460.00" width="19.00" height="1.00" fill="#FF9800"/>
<text x="123.75" y="478" transform="rotate(35 123.75 478)" text-anchor="start" font-family="sans-serif" font-size="11">ORION</text>
<text x="171.25" y="478" transform="rotate(35 171.25 478)" text-anchor="start" font-family="sans-serif" font-size="11">ProvenanceGuard</text>
<text x="218.75" y="478" transform="rotate(35 218.75 478)" text-anchor="start" font-family="sans-serif" font-size="11">AttributionBench</text>
<text x="266.25" y="478" transform="rotate(35 266.25 478)" text-anchor="start" font-family="sans-serif" font-size="11">IterativeRV</text>
<text x="313.75" y="478" transform="rotate(35 313.75 478)" text-anchor="start" font-family="sans-serif" font-size="11">CitationFormat</text>
<text x="361.25" y="478" transform="rotate(35 361.25 478)" text-anchor="start" font-family="sans-serif" font-size="11">PooledNLI</text>
<text x="408.75" y="478" transform="rotate(35 408.75 478)" text-anchor="start" font-family="sans-serif" font-size="11">Auditability</text>
<text x="456.25" y="478" transform="rotate(35 456.25 478)" text-anchor="start" font-family="sans-serif" font-size="11">DeepSciVerify</text>
<text x="503.75" y="478" transform="rotate(35 503.75 478)" text-anchor="start" font-family="sans-serif" font-size="11">NoExactBinding</text>
<text x="551.25" y="478" transform="rotate(35 551.25 478)" text-anchor="start" font-family="sans-serif" font-size="11">NoContentVsProvenance</text>
<text x="598.75" y="478" transform="rotate(35 598.75 478)" text-anchor="start" font-family="sans-serif" font-size="11">NoLineageIndep</text>
<text x="646.25" y="478" transform="rotate(35 646.25 478)" text-anchor="start" font-family="sans-serif" font-size="11">NoHostileBattery</text>
<text x="693.75" y="478" transform="rotate(35 693.75 478)" text-anchor="start" font-family="sans-serif" font-size="11">NoBehavCoord</text>
<text x="741.25" y="478" transform="rotate(35 741.25 478)" text-anchor="start" font-family="sans-serif" font-size="11">NoEvalProtect</text>
<text x="788.75" y="478" transform="rotate(35 788.75 478)" text-anchor="start" font-family="sans-serif" font-size="11">SoftConfidence</text>
<text x="836.25" y="478" transform="rotate(35 836.25 478)" text-anchor="start" font-family="sans-serif" font-size="11">NoSearchContam</text>
<rect x="825" y="48" width="12" height="12" fill="#2196F3"/>
<text x="840" y="58" font-family="sans-serif" font-size="11">Normalized cost</text>
<rect x="825" y="68" width="12" height="12" fill="#FF9800"/>
<text x="840" y="78" font-family="sans-serif" font-size="11">False promotion</text>
</svg>