<svg xmlns="http://www.w3.org/2000/svg" viewBox="0 0 826 953" width="826" height="953" font-family="Helvetica,Arial,sans-serif">
<rect width="100%" height="100%" fill="#ffffff"/>
<defs><marker id="arrow" viewBox="0 0 10 10" refX="9" refY="5" markerWidth="7" markerHeight="7" orient="auto-start-reverse"><path d="M 0 0 L 10 5 L 0 10 z" fill="#333"/></marker><marker id="blocked" viewBox="0 0 10 10" refX="5" refY="5" markerWidth="8" markerHeight="8" orient="auto"><path d="M 1 1 L 9 9 M 9 1 L 1 9" stroke="#b03030" stroke-width="2" fill="none"/></marker></defs>
<text x="30.0" y="22" font-size="14" font-weight="bold">P2-1  Discovery pipeline: retrieval, screening, route stop, task closure</text>
<polyline points="114.0,129.0 114.0,157.0" fill="none" stroke="#333" stroke-width="1.2" marker-end="url(#arrow)"/>
<polyline points="114.0,225.0 114.0,253.0" fill="none" stroke="#333" stroke-width="1.2" marker-end="url(#arrow)"/>
<polyline points="114.0,321.0 114.0,349.0" fill="none" stroke="#333" stroke-width="1.2" marker-end="url(#arrow)"/>
<polyline points="114.0,417.0 114.0,445.0" fill="none" stroke="#333" stroke-width="1.2" marker-end="url(#arrow)"/>
<rect x="50.2" y="424.0" width="127.6" height="14" fill="#ffffff" opacity="0.94"/>
<text x="114.0" y="434.0" font-size="9" text-anchor="middle" fill="#333">dedup by content digest</text>
<polyline points="114.0,513.0 114.0,541.0" fill="none" stroke="#333" stroke-width="1.2" marker-end="url(#arrow)"/>
<rect x="45.0" y="520.0" width="138.0" height="14" fill="#ffffff" opacity="0.94"/>
<text x="114.0" y="530.0" font-size="9" text-anchor="middle" fill="#333">read or legitimate reread</text>
<polyline points="201.0,575.0 326.0,575.0" fill="none" stroke="#333" stroke-width="1.2" marker-end="url(#arrow)"/>
<rect x="217.9" y="568.0" width="91.2" height="14" fill="#ffffff" opacity="0.94"/>
<text x="263.5" y="578.0" font-size="9" text-anchor="middle" fill="#333">marginal novelty</text>
<polyline points="500.0,575.0 625.0,575.0" fill="none" stroke="#333" stroke-width="1.2" marker-end="url(#arrow)"/>
<rect x="522.1" y="568.0" width="80.8" height="14" fill="#ffffff" opacity="0.94"/>
<text x="562.5" y="578.0" font-size="9" text-anchor="middle" fill="#333">route captures</text>
<polyline points="413.0,609.0 413.0,723.4" fill="none" stroke="#333" stroke-width="1.2" marker-end="url(#arrow)"/>
<rect x="364.8" y="653.2" width="96.4" height="26" fill="#ffffff" opacity="0.94"/>
<text x="413.0" y="663.2" font-size="9" text-anchor="middle" fill="#333">suspend:</text>
<text x="413.0" y="675.2" font-size="9" text-anchor="middle" fill="#333">transport failure</text>
<polyline points="337.4,791.4 189.6,857.8" fill="none" stroke="#333" stroke-width="1.2" marker-end="url(#arrow)"/>
<rect x="233.1" y="814.3" width="75.6" height="14" fill="#ffffff" opacity="0.94"/>
<text x="270.9" y="824.3" font-size="9" text-anchor="middle" fill="#333">must be empty</text>
<polyline points="712.0,609.0 712.0,891.8 201.0,891.8" fill="none" stroke="#333" stroke-width="1.2" stroke-dasharray="6 4" marker-end="url(#arrow)"/>
<rect x="674.2" y="879.8" width="75.6" height="14" fill="#ffffff" opacity="0.94"/>
<text x="712.0" y="889.8" font-size="9" text-anchor="middle" fill="#333">advisory only</text>
<polyline points="429.3,541.0 597.0,191.0 201.0,191.0" fill="none" stroke="#333" stroke-width="1.2" marker-end="url(#arrow)"/>
<rect x="552.7" y="184.0" width="80.8" height="14" fill="#ffffff" opacity="0.94"/>
<text x="593.1" y="194.0" font-size="9" text-anchor="middle" fill="#333">reopen trigger</text>
<polyline points="380.9,609.0 146.1,857.8" fill="none" stroke="#b03030" stroke-width="1.2" stroke-dasharray="6 4" marker-end="url(#blocked)"/>
<rect x="195.8" y="732.8" width="112.0" height="26" fill="#ffffff" opacity="0.94"/>
<text x="251.8" y="742.8" font-size="9" text-anchor="middle" fill="#b03030">route stop cannot</text>
<text x="251.8" y="754.8" font-size="9" text-anchor="middle" fill="#b03030">certify task closure</text>
<rect x="30.0" y="64.0" width="168.0" height="62.0" rx="5" fill="#ffffff" stroke="#333" stroke-width="1.1"/>
<text x="114.0" y="92.0" font-size="10.5" text-anchor="middle">Research question</text>
<text x="114.0" y="105.0" font-size="10.5" text-anchor="middle">and extraction frame</text>
<rect x="30.0" y="160.0" width="168.0" height="62.0" rx="5" fill="#ffffff" stroke="#333" stroke-width="1.1"/>
<text x="114.0" y="181.5" font-size="10.5" text-anchor="middle">Route ensemble</text>
<text x="114.0" y="194.5" font-size="10.5" text-anchor="middle">kind / backend /</text>
<text x="114.0" y="207.5" font-size="10.5" text-anchor="middle">query derivation</text>
<rect x="30.0" y="256.0" width="168.0" height="62.0" rx="5" fill="#ffffff" stroke="#333" stroke-width="1.1"/>
<text x="114.0" y="284.0" font-size="10.5" text-anchor="middle">Retrieval</text>
<text x="114.0" y="297.0" font-size="10.5" text-anchor="middle">raw provider records</text>
<rect x="30.0" y="352.0" width="168.0" height="62.0" rx="5" fill="#ffffff" stroke="#333" stroke-width="1.1"/>
<text x="114.0" y="380.0" font-size="10.5" text-anchor="middle">Content identity</text>
<text x="114.0" y="393.0" font-size="10.5" text-anchor="middle">and alias closure</text>
<rect x="30.0" y="448.0" width="168.0" height="62.0" rx="5" fill="#ffffff" stroke="#333" stroke-width="1.1"/>
<text x="114.0" y="476.0" font-size="10.5" text-anchor="middle">Question-conditioned</text>
<text x="114.0" y="489.0" font-size="10.5" text-anchor="middle">read state</text>
<rect x="30.0" y="544.0" width="168.0" height="62.0" rx="5" fill="#ffffff" stroke="#333" stroke-width="1.1"/>
<text x="114.0" y="572.0" font-size="10.5" text-anchor="middle">Screening</text>
<text x="114.0" y="585.0" font-size="10.5" text-anchor="middle">eligibility decision</text>
<rect x="329.0" y="544.0" width="168.0" height="62.0" rx="5" fill="#eceff4" stroke="#333" stroke-width="1.1"/>
<text x="413.0" y="565.5" font-size="10.5" text-anchor="middle">Route stop</text>
<text x="413.0" y="578.5" font-size="10.5" text-anchor="middle">continue / reformulate /</text>
<text x="413.0" y="591.5" font-size="10.5" text-anchor="middle">switch / suspend / stop</text>
<rect x="628.0" y="544.0" width="168.0" height="62.0" rx="5" fill="#faf5e6" stroke="#333" stroke-width="1.1"/>
<text x="712.0" y="572.0" font-size="10.5" text-anchor="middle">Coverage diagnostic</text>
<text x="712.0" y="585.0" font-size="10.5" text-anchor="middle">capture-recapture</text>
<rect x="329.0" y="726.4" width="168.0" height="62.0" rx="5" fill="#f9ecec" stroke="#333" stroke-width="1.1"/>
<text x="413.0" y="747.9" font-size="10.5" text-anchor="middle">Open obligations</text>
<text x="413.0" y="760.9" font-size="10.5" text-anchor="middle">unavailable or</text>
<text x="413.0" y="773.9" font-size="10.5" text-anchor="middle">censored routes</text>
<rect x="30.0" y="860.8" width="168.0" height="62.0" rx="5" fill="#ffffff" stroke="#333" stroke-width="1.1"/>
<text x="114.0" y="888.8" font-size="10.5" text-anchor="middle">Task closure</text>
<text x="114.0" y="901.8" font-size="10.5" text-anchor="middle">fail-closed</text>
</svg>