<svg xmlns="http://www.w3.org/2000/svg" width="690" height="590" viewBox="0 0 690 590">
<rect width="100%" height="100%" fill="white"/>
<text x="150" y="24" font-family="sans-serif" font-size="12">Mean task-level content Jaccard; structural independence shown in each off-diagonal cell</text>
<text x="194.00" y="64" text-anchor="middle" font-family="sans-serif" font-size="11">Lexical</text>
<text x="282.00" y="64" text-anchor="middle" font-family="sans-serif" font-size="11">Semantic</text>
<text x="370.00" y="64" text-anchor="middle" font-family="sans-serif" font-size="11">Citation</text>
<text x="458.00" y="64" text-anchor="middle" font-family="sans-serif" font-size="11">Reform.</text>
<text x="546.00" y="64" text-anchor="middle" font-family="sans-serif" font-size="11">Restricted</text>
<text x="138" y="128.00" text-anchor="end" font-family="sans-serif" font-size="11">Lexical</text>
<rect x="150" y="80" width="88" height="88" fill="#555" stroke="#aaa"/>
<text x="194.00" y="118.00" text-anchor="middle" fill="#fff" font-family="sans-serif" font-size="12">1</text>
<rect x="238" y="80" width="88" height="88" fill="#bbb" stroke="#aaa"/>
<text x="282.00" y="118.00" text-anchor="middle" fill="#111" font-family="sans-serif" font-size="12">0.07557</text>
<text x="282.00" y="137.00" text-anchor="middle" fill="#111" font-family="sans-serif" font-size="9">independent</text>
<rect x="326" y="80" width="88" height="88" fill="#fff" stroke="#aaa"/>
<text x="370.00" y="118.00" text-anchor="middle" fill="#111" font-family="sans-serif" font-size="12">0</text>
<text x="370.00" y="137.00" text-anchor="middle" fill="#111" font-family="sans-serif" font-size="9">independent</text>
<rect x="414" y="80" width="88" height="88" fill="#fff" stroke="#aaa"/>
<text x="458.00" y="118.00" text-anchor="middle" fill="#111" font-family="sans-serif" font-size="12">0</text>
<text x="458.00" y="137.00" text-anchor="middle" fill="#111" font-family="sans-serif" font-size="9">shared backend</text>
<rect x="502" y="80" width="88" height="88" fill="#fff" stroke="#aaa"/>
<text x="546.00" y="118.00" text-anchor="middle" fill="#111" font-family="sans-serif" font-size="12">0</text>
<text x="546.00" y="137.00" text-anchor="middle" fill="#111" font-family="sans-serif" font-size="9">independent</text>
<text x="138" y="216.00" text-anchor="end" font-family="sans-serif" font-size="11">Semantic</text>
<rect x="150" y="168" width="88" height="88" fill="#bbb" stroke="#aaa"/>
<text x="194.00" y="206.00" text-anchor="middle" fill="#111" font-family="sans-serif" font-size="12">0.07557</text>
<text x="194.00" y="225.00" text-anchor="middle" fill="#111" font-family="sans-serif" font-size="9">independent</text>
<rect x="238" y="168" width="88" height="88" fill="#555" stroke="#aaa"/>
<text x="282.00" y="206.00" text-anchor="middle" fill="#fff" font-family="sans-serif" font-size="12">1</text>
<rect x="326" y="168" width="88" height="88" fill="#fff" stroke="#aaa"/>
<text x="370.00" y="206.00" text-anchor="middle" fill="#111" font-family="sans-serif" font-size="12">0</text>
<text x="370.00" y="225.00" text-anchor="middle" fill="#111" font-family="sans-serif" font-size="9">independent</text>
<rect x="414" y="168" width="88" height="88" fill="#fff" stroke="#aaa"/>
<text x="458.00" y="206.00" text-anchor="middle" fill="#111" font-family="sans-serif" font-size="12">0</text>
<text x="458.00" y="225.00" text-anchor="middle" fill="#111" font-family="sans-serif" font-size="9">independent</text>
<rect x="502" y="168" width="88" height="88" fill="#fff" stroke="#aaa"/>
<text x="546.00" y="206.00" text-anchor="middle" fill="#111" font-family="sans-serif" font-size="12">0</text>
<text x="546.00" y="225.00" text-anchor="middle" fill="#111" font-family="sans-serif" font-size="9">independent</text>
<text x="138" y="304.00" text-anchor="end" font-family="sans-serif" font-size="11">Citation</text>
<rect x="150" y="256" width="88" height="88" fill="#fff" stroke="#aaa"/>
<text x="194.00" y="294.00" text-anchor="middle" fill="#111" font-family="sans-serif" font-size="12">0</text>
<text x="194.00" y="313.00" text-anchor="middle" fill="#111" font-family="sans-serif" font-size="9">independent</text>
<rect x="238" y="256" width="88" height="88" fill="#fff" stroke="#aaa"/>
<text x="282.00" y="294.00" text-anchor="middle" fill="#111" font-family="sans-serif" font-size="12">0</text>
<text x="282.00" y="313.00" text-anchor="middle" fill="#111" font-family="sans-serif" font-size="9">independent</text>
<rect x="326" y="256" width="88" height="88" fill="#555" stroke="#aaa"/>
<text x="370.00" y="294.00" text-anchor="middle" fill="#fff" font-family="sans-serif" font-size="12">1</text>
<rect x="414" y="256" width="88" height="88" fill="#fff" stroke="#aaa"/>
<text x="458.00" y="294.00" text-anchor="middle" fill="#111" font-family="sans-serif" font-size="12">0</text>
<text x="458.00" y="313.00" text-anchor="middle" fill="#111" font-family="sans-serif" font-size="9">independent</text>
<rect x="502" y="256" width="88" height="88" fill="#fff" stroke="#aaa"/>
<text x="546.00" y="294.00" text-anchor="middle" fill="#111" font-family="sans-serif" font-size="12">0</text>
<text x="546.00" y="313.00" text-anchor="middle" fill="#111" font-family="sans-serif" font-size="9">independent</text>
<text x="138" y="392.00" text-anchor="end" font-family="sans-serif" font-size="11">Reform.</text>
<rect x="150" y="344" width="88" height="88" fill="#fff" stroke="#aaa"/>
<text x="194.00" y="382.00" text-anchor="middle" fill="#111" font-family="sans-serif" font-size="12">0</text>
<text x="194.00" y="401.00" text-anchor="middle" fill="#111" font-family="sans-serif" font-size="9">shared backend</text>
<rect x="238" y="344" width="88" height="88" fill="#fff" stroke="#aaa"/>
<text x="282.00" y="382.00" text-anchor="middle" fill="#111" font-family="sans-serif" font-size="12">0</text>
<text x="282.00" y="401.00" text-anchor="middle" fill="#111" font-family="sans-serif" font-size="9">independent</text>
<rect x="326" y="344" width="88" height="88" fill="#fff" stroke="#aaa"/>
<text x="370.00" y="382.00" text-anchor="middle" fill="#111" font-family="sans-serif" font-size="12">0</text>
<text x="370.00" y="401.00" text-anchor="middle" fill="#111" font-family="sans-serif" font-size="9">independent</text>
<rect x="414" y="344" width="88" height="88" fill="#555" stroke="#aaa"/>
<text x="458.00" y="382.00" text-anchor="middle" fill="#fff" font-family="sans-serif" font-size="12">1</text>
<rect x="502" y="344" width="88" height="88" fill="#fff" stroke="#aaa"/>
<text x="546.00" y="382.00" text-anchor="middle" fill="#111" font-family="sans-serif" font-size="12">0</text>
<text x="546.00" y="401.00" text-anchor="middle" fill="#111" font-family="sans-serif" font-size="9">independent</text>
<text x="138" y="480.00" text-anchor="end" font-family="sans-serif" font-size="11">Restricted</text>
<rect x="150" y="432" width="88" height="88" fill="#fff" stroke="#aaa"/>
<text x="194.00" y="470.00" text-anchor="middle" fill="#111" font-family="sans-serif" font-size="12">0</text>
<text x="194.00" y="489.00" text-anchor="middle" fill="#111" font-family="sans-serif" font-size="9">independent</text>
<rect x="238" y="432" width="88" height="88" fill="#fff" stroke="#aaa"/>
<text x="282.00" y="470.00" text-anchor="middle" fill="#111" font-family="sans-serif" font-size="12">0</text>
<text x="282.00" y="489.00" text-anchor="middle" fill="#111" font-family="sans-serif" font-size="9">independent</text>
<rect x="326" y="432" width="88" height="88" fill="#fff" stroke="#aaa"/>
<text x="370.00" y="470.00" text-anchor="middle" fill="#111" font-family="sans-serif" font-size="12">0</text>
<text x="370.00" y="489.00" text-anchor="middle" fill="#111" font-family="sans-serif" font-size="9">independent</text>
<rect x="414" y="432" width="88" height="88" fill="#fff" stroke="#aaa"/>
<text x="458.00" y="470.00" text-anchor="middle" fill="#111" font-family="sans-serif" font-size="12">0</text>
<text x="458.00" y="489.00" text-anchor="middle" fill="#111" font-family="sans-serif" font-size="9">independent</text>
<rect x="502" y="432" width="88" height="88" fill="#555" stroke="#aaa"/>
<text x="546.00" y="470.00" text-anchor="middle" fill="#fff" font-family="sans-serif" font-size="12">1</text>
<text x="150" y="552" font-family="sans-serif" font-size="11">Diagonal is self-overlap. Lexical/Reformulation share a backend and are not independent.</text>
<text x="150" y="570" font-family="sans-serif" font-size="11">390 frozen tasks; content identity; deterministic repeats collapsed; descriptive mechanism summary</text>
</svg>
